<?xml version="1.0"?>
<svg version="1.1" xmlns="http://www.w3.org/2000/svg" width="270px" height="60px" style=""><path fill="#087fd4" d="M51.04736328125,49.06201171875q0-0.1142578125,0.076171875-0.809326171875t0.199951171875-1.69482421875t0.276123046875-2.15185546875t0.2666015625-2.180419921875t0.199951171875-1.80908203125t0.085693359375-1.04736328125q-0.15234375-0.076171875-0.371337890625-0.218994140625t-0.218994140625-0.333251953125q0-0.2666015625,0.257080078125-0.428466796875t0.447509765625-0.238037109375q0.076171875-0.97119140625,0.1904296875-2.7041015625t0.352294921875-3.741943359375t0.66650390625-4.0751953125t1.133056640625-3.75146484375t1.69482421875-2.751708984375t2.4375-1.06640625t2.3994140625,0.9140625t1.552001953125,2.38037109375t0.9140625,3.25634765625t0.47607421875,3.56103515625t0.199951171875,3.3134765625t0.076171875,2.4755859375q0.0380859375,0.59033203125,0.28564453125,0.790283203125t0.542724609375,0.276123046875t0.533203125,0.17138671875t0.238037109375,0.47607421875q0,0.43798828125-0.533203125,0.609375t-0.837890625,0.20947265625q0.1904296875,2.38037109375,0.523681640625,4.6845703125t0.885498046875,4.646484375q0.076171875,0.43798828125,0.20947265625,0.885498046875t0.13330078125,0.866455078125q0,0.3046875-0.20947265625,0.504638671875t-0.542724609375,0.314208984375t-0.66650390625,0.15234375t-0.561767578125,0.0380859375q-0.85693359375,0-1.447265625-0.32373046875t-0.78076171875-1.23779296875q-0.51416015625-2.45654296875-1.00927734375-5.16064453125q-0.4189453125-2.34228515625-0.4189453125-4.55126953125q0-0.3427734375,0.01904296875-0.685546875q-1.599609375,0-3.21826171875,0.076171875t-3.10400390625,0.5712890625q-0.0380859375,0.51416015625-0.1904296875,1.9423828125t-0.3427734375,3.06591796875t-0.390380859375,3.132568359375t-0.238037109375,2.123291015625q-0.0380859375,0.2666015625-0.390380859375,0.504638671875t-0.76171875,0.257080078125t-0.7236328125-0.257080078125t-0.314208984375-0.980712890625z M54.6083984375,37.52197265625q1.4853515625-0.3427734375,2.980224609375-0.39990234375t3.018310546875-0.13330078125q-0.076171875-0.47607421875-0.0380859375-0.980712890625t0.0380859375-1.018798828125q0-1.12353515625-0.05712890625-2.60888671875t-0.17138671875-3.0087890625t-0.295166015625-2.999267578125t-0.409423828125-2.6279296875t-0.485595703125-1.837646484375t-0.561767578125-0.685546875q-0.59033203125,0.0380859375-1.114013671875,1.018798828125t-0.9521484375,2.49462890625t-0.78076171875,3.3896484375t-0.59033203125,3.665771484375t-0.390380859375,3.33251953125t-0.1904296875,2.3994140625z M70.236391601562,36.85546875q0-1.3330078125,0.123779296875-3.4658203125t0.295166015625-4.39892578125t0.428466796875-4.294189453125t0.561767578125-3.113525390625q0.1142578125-0.47607421875,0.542724609375-0.5712890625t0.866455078125-0.09521484375q0.59033203125,0,1.018798828125,0.20947265625t0.428466796875,0.9140625q0,3.4658203125-0.428466796875,6.941162109375t-0.466552734375,6.941162109375q0.59033203125-0.89501953125,1.5234375-1.342529296875t1.98046875-0.447509765625q1.447265625,0,2.49462890625,0.59033203125t1.69482421875,1.5234375t0.961669921875,2.161376953125t0.314208984375,2.504150390625q0,0.70458984375-0.142822265625,1.761474609375t-0.428466796875,2.22802734375t-0.7236328125,2.3232421875t-1.037841796875,2.066162109375t-1.380615234375,1.475830078125t-1.7138671875,0.561767578125q-0.1904296875,0-0.504638671875-0.05712890625t-0.62841796875-0.17138671875t-0.523681640625-0.295166015625t-0.20947265625-0.447509765625q0-0.3046875,0.371337890625-0.428466796875t0.599853515625-0.123779296875q0.85693359375-0.380859375,1.5234375-1.590087890625t1.114013671875-2.656494140625t0.676025390625-2.865966796875t0.228515625-2.313720703125q0-0.51416015625-0.15234375-1.37109375t-0.466552734375-1.69482421875t-0.85693359375-1.447265625t-1.285400390625-0.609375q-0.89501953125,0-1.42822265625,0.923583984375t-0.837890625,2.15185546875t-0.409423828125,2.53271484375t-0.104736328125,2.047119140625q0,0.47607421875,0.161865234375,0.942626953125t0.371337890625,0.93310546875t0.371337890625,0.9521484375t0.161865234375,0.961669921875q0,0.228515625-0.199951171875,0.380859375t-0.466552734375,0.24755859375t-0.561767578125,0.123779296875t-0.447509765625,0.028564453125q-1.08544921875,0-1.50439453125-0.51416015625t-0.7236328125-1.447265625q-0.66650390625-2.11376953125-0.923583984375-4.294189453125t-0.257080078125-4.370361328125z M93.894233398437,43.42529296875q0-4.13232421875,0.371337890625-8.274169921875t1.552001953125-8.159912109375q0.3427734375-1.19970703125,0.89501953125-2.370849609375t1.35205078125-2.085205078125t1.904296875-1.4853515625t2.6279296875-0.5712890625l0.39990234375,0.0380859375q1.6376953125,0.228515625,2.41845703125,1.323486328125t0.78076171875,2.732666015625q0,0.43798828125-0.104736328125,1.094970703125t-0.333251953125,1.266357421875t-0.618896484375,1.037841796875t-0.980712890625,0.428466796875q-0.2666015625-0.0380859375-0.485595703125-0.09521484375t-0.409423828125-0.24755859375q0.3046875-0.66650390625,0.542724609375-1.39013671875t0.238037109375-1.65673828125q0-0.3427734375-0.05712890625-0.8759765625t-0.218994140625-1.056884765625t-0.428466796875-0.9140625t-0.74267578125-0.390380859375q-1.19970703125,0-2.0185546875,1.342529296875t-1.37109375,3.427734375t-0.81884765625,4.6083984375t-0.409423828125,4.875t-0.161865234375,4.24658203125t-0.01904296875,2.675537109375q0,0.9140625-0.01904296875,2.0185546875l0,0.24755859375q0.01904296875,0.97119140625,0.13330078125,1.84716796875q0.15234375,0.990234375,0.59033203125,1.7138671875t1.37109375,0.837890625q0.28564453125,0.0380859375,0.55224609375,0.0380859375q1.1044921875,0,1.99951171875-0.62841796875q1.1044921875-0.78076171875,1.96142578125-2.028076171875t1.5234375-2.7421875t1.228271484375-2.827880859375t1.094970703125-2.208984375t1.1044921875-0.8759765625q0.1904296875,0,0.5712890625,0.076171875t0.380859375,0.36181640625q0,0.076171875-0.0380859375,0.20947265625t-0.09521484375,0.20947265625q-0.51416015625,2.0185546875-1.304443359375,4.189453125t-2.0185546875,3.951416015625t-3.0087890625,2.904052734375t-4.275146484375,1.12353515625q-1.7900390625,0-2.904052734375-0.676025390625t-1.7138671875-1.80908203125t-0.81884765625-2.561279296875t-0.218994140625-2.89453125z M113.80689453125,42.7587890625q0-1.08544921875,0.276123046875-2.237548828125t0.8759765625-2.07568359375t1.513916015625-1.50439453125t2.208984375-0.580810546875q0.97119140625,0,2.047119140625,0.333251953125t1.970947265625,0.9521484375t1.456787109375,1.513916015625t0.561767578125,1.99951171875q0,1.3330078125-0.485595703125,2.53271484375t-1.361572265625,2.142333984375t-2.047119140625,1.4853515625t-2.542236328125,0.542724609375q-1.12353515625,0-1.96142578125-0.409423828125t-1.399658203125-1.094970703125t-0.837890625-1.61865234375t-0.276123046875-1.98046875z M116.6062109375,42.720703125q0,0.3427734375,0.104736328125,1.00927734375t0.314208984375,1.304443359375t0.542724609375,1.1044921875t0.809326171875,0.428466796875q1.00927734375-0.1142578125,1.666259765625-0.656982421875t1.06640625-1.323486328125t0.5712890625-1.69482421875t0.161865234375-1.73291015625q0-1.04736328125-0.409423828125-1.751953125t-1.342529296875-1.142578125q0,0.0380859375,0.0380859375,0.0380859375t0.0380859375-0.0380859375l-0.47607421875-0.1142578125q-0.1904296875-0.076171875-0.466552734375-0.17138671875t-0.542724609375-0.4189453125q-0.74267578125,0.2666015625-1.152099609375,0.685546875t-0.618896484375,1.018798828125t-0.257080078125,1.437744140625t-0.047607421875,2.0185546875z M128.23518066406,34.43701171875q0-0.1904296875,0.295166015625-0.32373046875t0.70458984375-0.1904296875t0.78076171875-0.09521484375t0.561767578125-0.0380859375q0.076171875-0.51416015625,0.218994140625-1.39013671875t0.352294921875-1.875732421875t0.523681640625-2.009033203125t0.76171875-1.828125t1.056884765625-1.342529296875t1.42822265625-0.523681640625l-0.0380859375,0q0.2666015625-0.0380859375,0.523681640625-0.05712890625t0.523681640625-0.01904296875q0.62841796875,0,1.361572265625,0.24755859375t1.361572265625,0.695068359375t1.056884765625,1.075927734375t0.428466796875,1.3330078125q0,0.55224609375-0.276123046875,1.190185546875t-0.961669921875,0.637939453125q-0.228515625,0-0.466552734375-0.1142578125t-0.447509765625-0.24755859375q0.076171875-0.43798828125,0.076171875-0.8759765625q0-0.228515625-0.01904296875-0.43798828125q-0.05712890625-0.66650390625-0.28564453125-1.171142578125t-0.656982421875-0.7998046875t-1.018798828125-0.218994140625q-0.78076171875,0.1142578125-1.171142578125,0.9521484375t-0.542724609375,1.989990234375t-0.1904296875,2.34228515625t-0.15234375,1.932861328125q0.89501953125,0.076171875,1.513916015625,0.076171875l1.552001953125,0q0.15234375,0,0.523681640625,0.01904296875t0.7236328125,0.076171875t0.62841796875,0.199951171875t0.276123046875,0.371337890625q0,0.1904296875-0.15234375,0.333251953125t-0.371337890625,0.199951171875t-0.45703125,0.076171875t-0.390380859375,0.01904296875q-0.66650390625,0-1.133056640625-0.05712890625t-0.89501953125-0.104736328125t-0.89501953125-0.047607421875t-1.094970703125,0.13330078125q-0.1904296875,2.11376953125-0.3046875,4.189453125t-0.1142578125,4.189453125q0,3.3134765625,0.20947265625,6.49365234375t0.76171875,6.45556640625q0.076171875,0.3046875,0.13330078125,0.695068359375t0.05712890625,0.752197265625q0,0.3427734375-0.20947265625,0.561767578125t-0.523681640625,0.314208984375t-0.6474609375,0.13330078125t-0.599853515625,0.0380859375q-1.08544921875,0-1.5234375-0.333251953125t-0.62841796875-1.342529296875q-0.47607421875-2.68505859375-0.609375-5.417724609375t-0.13330078125-5.512939453125q0-2.72314453125,0.199951171875-5.436767578125t0.504638671875-5.398681640625q-0.15234375,0-0.523681640625,0.01904296875t-0.74267578125,0t-0.6474609375-0.13330078125t-0.276123046875-0.39990234375z M142.28260742188,34.43701171875q0-0.1904296875,0.295166015625-0.32373046875t0.70458984375-0.1904296875t0.78076171875-0.09521484375t0.561767578125-0.0380859375q0.076171875-0.51416015625,0.218994140625-1.39013671875t0.352294921875-1.875732421875t0.523681640625-2.009033203125t0.76171875-1.828125t1.056884765625-1.342529296875t1.42822265625-0.523681640625l-0.0380859375,0q0.2666015625-0.0380859375,0.523681640625-0.05712890625t0.523681640625-0.01904296875q0.62841796875,0,1.361572265625,0.24755859375t1.361572265625,0.695068359375t1.056884765625,1.075927734375t0.428466796875,1.3330078125q0,0.55224609375-0.276123046875,1.190185546875t-0.961669921875,0.637939453125q-0.228515625,0-0.466552734375-0.1142578125t-0.447509765625-0.24755859375q0.076171875-0.43798828125,0.076171875-0.8759765625q0-0.228515625-0.01904296875-0.43798828125q-0.05712890625-0.66650390625-0.28564453125-1.171142578125t-0.656982421875-0.7998046875t-1.018798828125-0.218994140625q-0.78076171875,0.1142578125-1.171142578125,0.9521484375t-0.542724609375,1.989990234375t-0.1904296875,2.34228515625t-0.15234375,1.932861328125q0.89501953125,0.076171875,1.513916015625,0.076171875l1.552001953125,0q0.15234375,0,0.523681640625,0.01904296875t0.7236328125,0.076171875t0.62841796875,0.199951171875t0.276123046875,0.371337890625q0,0.1904296875-0.15234375,0.333251953125t-0.371337890625,0.199951171875t-0.45703125,0.076171875t-0.390380859375,0.01904296875q-0.66650390625,0-1.133056640625-0.05712890625t-0.89501953125-0.104736328125t-0.89501953125-0.047607421875t-1.094970703125,0.13330078125q-0.1904296875,2.11376953125-0.3046875,4.189453125t-0.1142578125,4.189453125q0,3.3134765625,0.20947265625,6.49365234375t0.76171875,6.45556640625q0.076171875,0.3046875,0.13330078125,0.695068359375t0.05712890625,0.752197265625q0,0.3427734375-0.20947265625,0.561767578125t-0.523681640625,0.314208984375t-0.6474609375,0.13330078125t-0.599853515625,0.0380859375q-1.08544921875,0-1.5234375-0.333251953125t-0.62841796875-1.342529296875q-0.47607421875-2.68505859375-0.609375-5.417724609375t-0.13330078125-5.512939453125q0-2.72314453125,0.199951171875-5.436767578125t0.504638671875-5.398681640625q-0.15234375,0-0.523681640625,0.01904296875t-0.74267578125,0t-0.6474609375-0.13330078125t-0.276123046875-0.39990234375z M156.33003417969,43.177734375q0-1.3330078125,0.295166015625-3.14208984375t0.999755859375-3.427734375t1.856689453125-2.751708984375t2.904052734375-1.133056640625q1.6376953125,0,2.45654296875,0.942626953125t0.81884765625,2.542236328125q0,1.04736328125-0.390380859375,2.294677734375t-1.114013671875,2.361328125t-1.7138671875,1.856689453125t-2.208984375,0.74267578125l-0.4951171875-0.0380859375q0,0.51416015625,0.15234375,1.380615234375t0.447509765625,1.723388671875t0.76171875,1.50439453125t1.133056640625,0.6474609375q0.97119140625,0,1.8662109375-0.78076171875t1.69482421875-1.73291015625t1.4853515625-1.73291015625t1.2568359375-0.78076171875q0.3046875,0,0.62841796875,0.09521484375t0.36181640625,0.533203125q0,0.2666015625-0.142822265625,0.43798828125t-0.257080078125,0.380859375q-0.59033203125,1.00927734375-1.285400390625,1.92333984375t-1.571044921875,1.65673828125t-1.913818359375,1.171142578125t-2.294677734375,0.428466796875q-1.6376953125,0-2.72314453125-0.580810546875t-1.751953125-1.5615234375t-0.961669921875-2.26611328125t-0.295166015625-2.694580078125z M159.73872558594,41.73046875l0.533203125,0.47607421875q0.380859375,0.3427734375,0.76171875,0.15234375t0.685546875-0.695068359375t0.561767578125-1.247314453125t0.45703125-1.5234375t0.295166015625-1.5234375t0.09521484375-1.23779296875l0-0.6474609375t-0.05712890625-0.685546875t-0.199951171875-0.542724609375t-0.447509765625-0.276123046875q-0.09521484375-0.01904296875-0.17138671875-0.01904296875q-0.6474609375,0-1.1044921875,0.81884765625q-0.4951171875,0.9140625-0.7998046875,2.218505859375t-0.43798828125,2.675537109375t-0.17138671875,2.056640625z M172.243671875,43.177734375q0-1.3330078125,0.295166015625-3.14208984375t0.999755859375-3.427734375t1.856689453125-2.751708984375t2.904052734375-1.133056640625q1.6376953125,0,2.45654296875,0.942626953125t0.81884765625,2.542236328125q0,1.04736328125-0.390380859375,2.294677734375t-1.114013671875,2.361328125t-1.7138671875,1.856689453125t-2.208984375,0.74267578125l-0.4951171875-0.0380859375q0,0.51416015625,0.15234375,1.380615234375t0.447509765625,1.723388671875t0.76171875,1.50439453125t1.133056640625,0.6474609375q0.97119140625,0,1.8662109375-0.78076171875t1.69482421875-1.73291015625t1.4853515625-1.73291015625t1.2568359375-0.78076171875q0.3046875,0,0.62841796875,0.09521484375t0.36181640625,0.533203125q0,0.2666015625-0.142822265625,0.43798828125t-0.257080078125,0.380859375q-0.59033203125,1.00927734375-1.285400390625,1.92333984375t-1.571044921875,1.65673828125t-1.913818359375,1.171142578125t-2.294677734375,0.428466796875q-1.6376953125,0-2.72314453125-0.580810546875t-1.751953125-1.5615234375t-0.961669921875-2.26611328125t-0.295166015625-2.694580078125z M175.65236328125,41.73046875l0.533203125,0.47607421875q0.380859375,0.3427734375,0.76171875,0.15234375t0.685546875-0.695068359375t0.561767578125-1.247314453125t0.45703125-1.5234375t0.295166015625-1.5234375t0.09521484375-1.23779296875l0-0.6474609375t-0.05712890625-0.685546875t-0.199951171875-0.542724609375t-0.447509765625-0.276123046875q-0.09521484375-0.01904296875-0.17138671875-0.01904296875q-0.6474609375,0-1.1044921875,0.81884765625q-0.4951171875,0.9140625-0.7998046875,2.218505859375t-0.43798828125,2.675537109375t-0.17138671875,2.056640625z M195.57778320312,45.8818359375q0-0.66650390625,0.45703125-0.847412109375t0.990234375-0.180908203125q0.93310546875,0,1.58056640625,0.837890625t1.228271484375,1.837646484375t1.152099609375,1.837646484375t1.35205078125,0.837890625q0.59033203125,0,1.075927734375-0.295166015625t0.837890625-0.74267578125t0.542724609375-1.00927734375t0.1904296875-1.114013671875q0-1.447265625-0.580810546875-2.98974609375t-1.4853515625-3.18017578125t-1.913818359375-3.3515625t-1.904296875-3.48486328125t-1.4853515625-3.608642578125t-0.59033203125-3.703857421875q0-2.79931640625,1.67578125-4.341796875t4.41796875-1.54248046875q0.93310546875,0,1.88525390625,0.2666015625t1.751953125,0.7998046875t1.304443359375,1.31396484375t0.504638671875,1.828125q0,0.3427734375-0.504638671875,0.447509765625t-0.733154296875,0.104736328125q-0.3427734375,0-0.74267578125-0.085693359375t-0.51416015625-0.466552734375t-0.32373046875-0.8759765625t-0.523681640625-0.923583984375t-0.74267578125-0.74267578125t-0.942626953125-0.314208984375q-0.85693359375,0-1.456787109375,0.352294921875t-0.97119140625,0.942626953125t-0.55224609375,1.323486328125t-0.180908203125,1.513916015625q0,1.828125,0.62841796875,3.684814453125t1.5615234375,3.6943359375t2.028076171875,3.627685546875t2.028076171875,3.48486328125t1.5615234375,3.3134765625t0.62841796875,3.06591796875q0,1.294921875-0.609375,2.18994140625t-1.54248046875,1.456787109375t-2.066162109375,0.81884765625t-2.218505859375,0.257080078125q-1.16162109375,0-2.38037109375-0.466552734375t-2.18994140625-1.285400390625t-1.599609375-1.913818359375t-0.62841796875-2.370849609375z M212.71017089844,44.47265625l0-1.7900390625q0-0.97119140625,0.047607421875-2.751708984375t0.123779296875-3.90380859375t0.20947265625-4.427490234375t0.3046875-4.351318359375t0.409423828125-3.665771484375t0.542724609375-2.3994140625q0.1904296875-0.43798828125,0.62841796875-0.55224609375t0.85693359375-0.1142578125q0.66650390625,0,1.171142578125,0.295166015625t0.504638671875,1.075927734375l-0.3427734375,0.380859375q-0.66650390625,4.39892578125-0.85693359375,8.8359375t-0.2666015625,8.8740234375q0.47607421875-0.74267578125,1.075927734375-1.456787109375t1.3330078125-1.266357421875t1.58056640625-0.885498046875t1.856689453125-0.333251953125q1.294921875,0,2.142333984375,0.78076171875t1.399658203125,2.028076171875t0.81884765625,2.789794921875t0.409423828125,3.0849609375t0.199951171875,2.923095703125t0.17138671875,2.294677734375q-0.36181640625,0.4951171875-1.06640625,0.4951171875l-0.05712890625,0q-0.3046875,0-0.66650390625-0.076171875t-0.47607421875-0.380859375l0.0380859375,0.0380859375q-0.2666015625-0.59033203125-0.36181640625-1.704345703125t-0.15234375-2.45654296875t-0.199951171875-2.751708984375t-0.428466796875-2.5517578125t-0.837890625-1.88525390625t-1.4853515625-0.78076171875l-0.1142578125,0q-1.12353515625,0-1.88525390625,0.685546875q-0.7998046875,0.7236328125-1.294921875,1.904296875t-0.76171875,2.6279296875t-0.409423828125,2.789794921875t-0.218994140625,2.4375t-0.1904296875,1.609130859375q-0.1142578125,0.43798828125-0.676025390625,0.580810546875t-0.961669921875,0.142822265625q-0.93310546875,0-1.5234375-0.533203125q-0.43798828125-1.04736328125-0.51416015625-2.60888671875t-0.076171875-3.046875z M230.5471484375,42.7587890625q0-1.08544921875,0.276123046875-2.237548828125t0.8759765625-2.07568359375t1.513916015625-1.50439453125t2.208984375-0.580810546875q0.97119140625,0,2.047119140625,0.333251953125t1.970947265625,0.9521484375t1.456787109375,1.513916015625t0.561767578125,1.99951171875q0,1.3330078125-0.485595703125,2.53271484375t-1.361572265625,2.142333984375t-2.047119140625,1.4853515625t-2.542236328125,0.542724609375q-1.12353515625,0-1.96142578125-0.409423828125t-1.399658203125-1.094970703125t-0.837890625-1.61865234375t-0.276123046875-1.98046875z M233.34646484375,42.720703125q0,0.3427734375,0.104736328125,1.00927734375t0.314208984375,1.304443359375t0.542724609375,1.1044921875t0.809326171875,0.428466796875q1.00927734375-0.1142578125,1.666259765625-0.656982421875t1.06640625-1.323486328125t0.5712890625-1.69482421875t0.161865234375-1.73291015625q0-1.04736328125-0.409423828125-1.751953125t-1.342529296875-1.142578125q0,0.0380859375,0.0380859375,0.0380859375t0.0380859375-0.0380859375l-0.47607421875-0.1142578125q-0.1904296875-0.076171875-0.466552734375-0.17138671875t-0.542724609375-0.4189453125q-0.74267578125,0.2666015625-1.152099609375,0.685546875t-0.618896484375,1.018798828125t-0.257080078125,1.437744140625t-0.047607421875,2.0185546875z M244.97543457031,35.50341796875q0-0.89501953125,0.352294921875-1.323486328125t1.285400390625-0.428466796875q0.55224609375,0,1.037841796875,0.228515625t0.485595703125,0.97119140625q0.076171875,1.08544921875,0.076171875,2.275634765625t0.20947265625,2.256591796875q0.47607421875-0.78076171875,1.075927734375-1.5615234375t1.323486328125-1.39013671875t1.58056640625-0.980712890625t1.8662109375-0.371337890625q1.37109375,0,2.3232421875,0.5712890625t1.571044921875,1.4853515625t0.89501953125,2.066162109375t0.276123046875,2.313720703125q0,1.7900390625-0.542724609375,2.923095703125t-1.437744140625,1.780517578125t-2.028076171875,0.8759765625t-2.275634765625,0.228515625q-1.00927734375,0-1.88525390625-0.390380859375t-1.21875-1.475830078125q0-0.3046875,0.447509765625-0.380859375t0.637939453125-0.076171875q0.62841796875,0,0.93310546875,0.3427734375q0.228515625,0.2666015625,0.504638671875,0.542724609375t0.580810546875,0.276123046875q0.59033203125,0,1.23779296875-0.333251953125t1.190185546875-0.8759765625t0.9140625-1.285400390625t0.371337890625-1.5234375q0-0.66650390625-0.1142578125-1.65673828125t-0.390380859375-1.904296875t-0.76171875-1.58056640625t-1.228271484375-0.66650390625q-1.12353515625,0-2.028076171875,1.0283203125t-1.50439453125,2.4755859375t-0.93310546875,3.0087890625t-0.333251953125,2.60888671875t0.13330078125,2.64697265625t0.276123046875,3.322998046875t0.276123046875,3.322998046875t0.13330078125,2.64697265625q0,0.2666015625-0.218994140625,0.428466796875t-0.523681640625,0.257080078125t-0.618896484375,0.1142578125t-0.466552734375,0.01904296875q-0.51416015625,0-1.075927734375-0.1142578125t-0.771240234375-0.70458984375q-0.2666015625-0.93310546875-0.4951171875-2.656494140625t-0.409423828125-3.80859375t-0.314208984375-4.3798828125t-0.228515625-4.427490234375t-0.142822265625-3.90380859375t-0.047607421875-2.818359375z"/><path fill="#" d=""/></svg>
